<mxfile host="app.diagrams.net" modified="2021-03-30T09:26:08.398Z" agent="5.0 (Windows NT 10.0; Win64; x64) AppleWebKit/537.36 (KHTML, like Gecko) Chrome/89.0.4389.90 Safari/537.36" etag="6nZuAQeMFOaDIxBPIyjN" version="14.5.3" type="github">
  <diagram id="sP0UjqI8K0fCyGJ58y7y" name="Page-1">
    <mxGraphModel dx="2048" dy="1814" grid="1" gridSize="10" guides="1" tooltips="1" connect="1" arrows="1" fold="1" page="1" pageScale="1" pageWidth="827" pageHeight="1169" math="0" shadow="0">
      <root>
        <mxCell id="0" />
        <mxCell id="1" parent="0" />
        <mxCell id="m0bTc_gPcahMmfI93I_u-1" value="" style="points=[];aspect=fixed;html=1;align=center;shadow=0;dashed=0;image;image=img/lib/allied_telesis/computer_and_terminals/Laptop.svg;" vertex="1" parent="1">
          <mxGeometry x="55.3" y="270" width="62" height="62.88" as="geometry" />
        </mxCell>
        <mxCell id="m0bTc_gPcahMmfI93I_u-2" value="" style="points=[];aspect=fixed;html=1;align=center;shadow=0;dashed=0;image;image=img/lib/allied_telesis/computer_and_terminals/Server_Desktop.svg;" vertex="1" parent="1">
          <mxGeometry x="14.699999999999989" y="-170" width="102.6" height="130.05" as="geometry" />
        </mxCell>
        <mxCell id="m0bTc_gPcahMmfI93I_u-3" value="" style="points=[];aspect=fixed;html=1;align=center;shadow=0;dashed=0;image;image=img/lib/allied_telesis/computer_and_terminals/Server_Desktop.svg;" vertex="1" parent="1">
          <mxGeometry x="440" y="230" width="98.89" height="125.35" as="geometry" />
        </mxCell>
        <mxCell id="m0bTc_gPcahMmfI93I_u-4" value="" style="points=[];aspect=fixed;html=1;align=center;shadow=0;dashed=0;image;image=img/lib/allied_telesis/computer_and_terminals/Server_Desktop.svg;" vertex="1" parent="1">
          <mxGeometry x="29.7" y="640" width="72.6" height="92.03" as="geometry" />
        </mxCell>
        <mxCell id="m0bTc_gPcahMmfI93I_u-5" value="" style="html=1;shadow=0;dashed=0;align=center;verticalAlign=middle;shape=mxgraph.arrows2.arrow;dy=0.6;dx=40;notch=0;rotation=-90;" vertex="1" parent="1">
          <mxGeometry x="-60" y="100" width="230" height="20" as="geometry" />
        </mxCell>
        <mxCell id="m0bTc_gPcahMmfI93I_u-6" value="" style="html=1;shadow=0;dashed=0;align=center;verticalAlign=middle;shape=mxgraph.arrows2.arrow;dy=0.6;dx=40;notch=0;rotation=90;" vertex="1" parent="1">
          <mxGeometry x="-20.001652351681514" y="99.99834764831843" width="230" height="20" as="geometry" />
        </mxCell>
        <mxCell id="m0bTc_gPcahMmfI93I_u-7" value="" style="html=1;shadow=0;dashed=0;align=center;verticalAlign=middle;shape=mxgraph.arrows2.arrow;dy=0.6;dx=40;notch=0;rotation=0;" vertex="1" parent="1">
          <mxGeometry x="140" y="280" width="270" height="20" as="geometry" />
        </mxCell>
        <mxCell id="m0bTc_gPcahMmfI93I_u-8" value="" style="html=1;shadow=0;dashed=0;align=center;verticalAlign=middle;shape=mxgraph.arrows2.arrow;dy=0.6;dx=40;notch=0;rotation=-180;" vertex="1" parent="1">
          <mxGeometry x="130" y="300" width="280" height="20" as="geometry" />
        </mxCell>
        <mxCell id="m0bTc_gPcahMmfI93I_u-9" value="" style="html=1;shadow=0;dashed=0;align=center;verticalAlign=middle;shape=mxgraph.arrows2.arrow;dy=0.6;dx=40;notch=0;rotation=-90;" vertex="1" parent="1">
          <mxGeometry x="-80" y="470" width="270" height="20" as="geometry" />
        </mxCell>
        <mxCell id="m0bTc_gPcahMmfI93I_u-10" value="" style="html=1;shadow=0;dashed=0;align=center;verticalAlign=middle;shape=mxgraph.arrows2.arrow;dy=0.6;dx=40;notch=0;rotation=90;" vertex="1" parent="1">
          <mxGeometry x="-50" y="470" width="270" height="20" as="geometry" />
        </mxCell>
        <mxCell id="m0bTc_gPcahMmfI93I_u-11" value="&lt;font style=&quot;font-size: 12px&quot;&gt;DNS pour&lt;b&gt; &lt;u&gt;.fr&lt;/u&gt;:&lt;/b&gt;&amp;nbsp;&lt;br&gt;&lt;span style=&quot;color: rgb(51 , 51 , 51) ; font-family: &amp;#34;helvetica neue&amp;#34; , &amp;#34;helvetica&amp;#34; , &amp;#34;arial&amp;#34; , sans-serif ; background-color: rgb(255 , 255 , 255)&quot;&gt;-&amp;gt; e.ext.nic.fr (193.176.144.22)&lt;/span&gt;&lt;br style=&quot;box-sizing: border-box ; color: rgb(51 , 51 , 51) ; font-family: &amp;#34;helvetica neue&amp;#34; , &amp;#34;helvetica&amp;#34; , &amp;#34;arial&amp;#34; , sans-serif ; background-color: rgb(255 , 255 , 255)&quot;&gt;&lt;span style=&quot;color: rgb(51 , 51 , 51) ; font-family: &amp;#34;helvetica neue&amp;#34; , &amp;#34;helvetica&amp;#34; , &amp;#34;arial&amp;#34; , sans-serif ; background-color: rgb(255 , 255 , 255)&quot;&gt;-&amp;gt; f.ext.nic.fr (194.146.106.46)&lt;/span&gt;&lt;br style=&quot;box-sizing: border-box ; color: rgb(51 , 51 , 51) ; font-family: &amp;#34;helvetica neue&amp;#34; , &amp;#34;helvetica&amp;#34; , &amp;#34;arial&amp;#34; , sans-serif ; background-color: rgb(255 , 255 , 255)&quot;&gt;&lt;span style=&quot;color: rgb(51 , 51 , 51) ; font-family: &amp;#34;helvetica neue&amp;#34; , &amp;#34;helvetica&amp;#34; , &amp;#34;arial&amp;#34; , sans-serif ; background-color: rgb(255 , 255 , 255)&quot;&gt;-&amp;gt; g.ext.nic.fr (194.0.36.1)&lt;/span&gt;&lt;br style=&quot;box-sizing: border-box ; color: rgb(51 , 51 , 51) ; font-family: &amp;#34;helvetica neue&amp;#34; , &amp;#34;helvetica&amp;#34; , &amp;#34;arial&amp;#34; , sans-serif ; background-color: rgb(255 , 255 , 255)&quot;&gt;&lt;span style=&quot;color: rgb(51 , 51 , 51) ; font-family: &amp;#34;helvetica neue&amp;#34; , &amp;#34;helvetica&amp;#34; , &amp;#34;arial&amp;#34; , sans-serif ; background-color: rgb(255 , 255 , 255)&quot;&gt;-&amp;gt; d.nic.fr (194.0.9.1)&lt;/span&gt;&lt;/font&gt;" style="rounded=0;whiteSpace=wrap;html=1;" vertex="1" parent="1">
          <mxGeometry x="117.3" y="20" width="200" height="100" as="geometry" />
        </mxCell>
        <mxCell id="m0bTc_gPcahMmfI93I_u-12" value="&lt;font style=&quot;font-size: 21px&quot;&gt;Afnic.fr ?&lt;/font&gt;" style="rounded=0;whiteSpace=wrap;html=1;" vertex="1" parent="1">
          <mxGeometry x="-95.3" y="60" width="120" height="40" as="geometry" />
        </mxCell>
        <mxCell id="m0bTc_gPcahMmfI93I_u-13" value="&lt;font style=&quot;font-size: 21px&quot;&gt;Afnic.fr ?&lt;/font&gt;" style="rounded=0;whiteSpace=wrap;html=1;" vertex="1" parent="1">
          <mxGeometry x="180" y="260" width="110" height="19.35" as="geometry" />
        </mxCell>
        <mxCell id="m0bTc_gPcahMmfI93I_u-14" value="&lt;span style=&quot;color: rgb(51 , 51 , 51) ; font-family: &amp;#34;helvetica neue&amp;#34; , &amp;#34;helvetica&amp;#34; , &amp;#34;arial&amp;#34; , sans-serif ; font-size: 14px ; background-color: rgb(255 , 255 , 255)&quot;&gt;DNS pour &lt;b&gt;&lt;u&gt;afnic.fr:&lt;/u&gt;&lt;/b&gt;&lt;br&gt;-&amp;gt; ns1.nic.fr (192.134.4.1)&lt;/span&gt;&lt;br style=&quot;box-sizing: border-box ; color: rgb(51 , 51 , 51) ; font-family: &amp;#34;helvetica neue&amp;#34; , &amp;#34;helvetica&amp;#34; , &amp;#34;arial&amp;#34; , sans-serif ; font-size: 14px ; background-color: rgb(255 , 255 , 255)&quot;&gt;&lt;span style=&quot;color: rgb(51 , 51 , 51) ; font-family: &amp;#34;helvetica neue&amp;#34; , &amp;#34;helvetica&amp;#34; , &amp;#34;arial&amp;#34; , sans-serif ; font-size: 14px ; background-color: rgb(255 , 255 , 255)&quot;&gt;-&amp;gt; ns2.nic.fr (192.93.0.4)&lt;/span&gt;&lt;br style=&quot;box-sizing: border-box ; color: rgb(51 , 51 , 51) ; font-family: &amp;#34;helvetica neue&amp;#34; , &amp;#34;helvetica&amp;#34; , &amp;#34;arial&amp;#34; , sans-serif ; font-size: 14px ; background-color: rgb(255 , 255 , 255)&quot;&gt;&lt;span style=&quot;color: rgb(51 , 51 , 51) ; font-family: &amp;#34;helvetica neue&amp;#34; , &amp;#34;helvetica&amp;#34; , &amp;#34;arial&amp;#34; , sans-serif ; font-size: 14px ; background-color: rgb(255 , 255 , 255)&quot;&gt;-&amp;gt; ns3.nic.fr (192.134.0.49)&lt;/span&gt;" style="rounded=0;whiteSpace=wrap;html=1;" vertex="1" parent="1">
          <mxGeometry x="200" y="332.88" width="230" height="70" as="geometry" />
        </mxCell>
        <mxCell id="m0bTc_gPcahMmfI93I_u-17" value="&lt;font style=&quot;font-size: 21px&quot;&gt;Afnic.fr ?&lt;/font&gt;" style="rounded=0;whiteSpace=wrap;html=1;" vertex="1" parent="1">
          <mxGeometry x="100" y="510" width="110" height="19.35" as="geometry" />
        </mxCell>
        <mxCell id="m0bTc_gPcahMmfI93I_u-18" value="&lt;span style=&quot;font-family: &amp;#34;helvetica neue&amp;#34; , &amp;#34;helvetica&amp;#34; , &amp;#34;arial&amp;#34; , sans-serif ; background-color: rgb(255 , 255 , 255)&quot;&gt;&lt;span style=&quot;color: rgb(51 , 51 , 51) ; font-size: 14px&quot;&gt;IP pour &lt;/span&gt;&lt;b style=&quot;color: rgb(51 , 51 , 51) ; font-size: 14px&quot;&gt;&lt;u&gt;afnic.fr:&lt;/u&gt;&lt;/b&gt;&lt;span style=&quot;color: rgb(51 , 51 , 51) ; font-size: 14px&quot;&gt;&amp;nbsp;&lt;/span&gt;&lt;br&gt;&lt;span style=&quot;color: rgb(51 , 51 , 51) ; font-size: 14px&quot;&gt;Answer: A-record for afnic.fr = &lt;/span&gt;&lt;b&gt;&lt;font style=&quot;font-size: 19px&quot; color=&quot;#ff0000&quot;&gt;&lt;u&gt;&lt;i&gt;192.134.5.37&lt;/i&gt;&lt;/u&gt;&lt;/font&gt;&lt;/b&gt;&lt;/span&gt;" style="rounded=0;whiteSpace=wrap;html=1;" vertex="1" parent="1">
          <mxGeometry x="-190" y="454.67" width="230" height="70" as="geometry" />
        </mxCell>
        <mxCell id="m0bTc_gPcahMmfI93I_u-19" value="&lt;font style=&quot;font-size: 21px&quot;&gt;Serveur DNS racine:&lt;br&gt;198.41.0.4&lt;br&gt;&lt;br&gt;&lt;/font&gt;" style="rounded=0;whiteSpace=wrap;html=1;" vertex="1" parent="1">
          <mxGeometry x="-40" y="-250" width="220" height="80" as="geometry" />
        </mxCell>
        <mxCell id="m0bTc_gPcahMmfI93I_u-20" value="&lt;font&gt;&lt;font style=&quot;font-size: 18px&quot;&gt;DNS 1 :&lt;/font&gt;&lt;br&gt;&lt;span style=&quot;font-size: 12px ; color: rgb(51 , 51 , 51) ; font-family: &amp;#34;helvetica neue&amp;#34; , &amp;#34;helvetica&amp;#34; , &amp;#34;arial&amp;#34; , sans-serif ; background-color: rgb(255 , 255 , 255)&quot;&gt;e.ext.nic.fr (193.176.144.22)&lt;/span&gt;&lt;br&gt;&lt;/font&gt;" style="rounded=0;whiteSpace=wrap;html=1;" vertex="1" parent="1">
          <mxGeometry x="550" y="220" width="210" height="60" as="geometry" />
        </mxCell>
        <mxCell id="m0bTc_gPcahMmfI93I_u-21" value="&lt;font&gt;&lt;font style=&quot;font-size: 18px&quot;&gt;DNS 2:&lt;br&gt;&lt;/font&gt;&lt;span style=&quot;color: rgb(51 , 51 , 51) ; font-family: &amp;#34;helvetica neue&amp;#34; , &amp;#34;helvetica&amp;#34; , &amp;#34;arial&amp;#34; , sans-serif ; font-size: 14px ; background-color: rgb(255 , 255 , 255)&quot;&gt;ns1.nic.fr (192.134.4.1)&lt;/span&gt;&lt;br style=&quot;box-sizing: border-box ; color: rgb(51 , 51 , 51) ; font-family: &amp;#34;helvetica neue&amp;#34; , &amp;#34;helvetica&amp;#34; , &amp;#34;arial&amp;#34; , sans-serif ; font-size: 14px ; background-color: rgb(255 , 255 , 255)&quot;&gt;&lt;br&gt;&lt;/font&gt;" style="rounded=0;whiteSpace=wrap;html=1;" vertex="1" parent="1">
          <mxGeometry x="-20" y="750" width="210" height="60" as="geometry" />
        </mxCell>
      </root>
    </mxGraphModel>
  </diagram>
</mxfile>
